HIERARCHY
ROOT root
{
	OFFSET 0.000000 0.000000 0.000000
	CHANNELS 6 Xposition Yposition Zposition Zrotation Yrotation Xrotation
	JOINT lhip
	{
		OFFSET 0.058581 -0.082280 -0.017664
		CHANNELS 3 Zrotation Yrotation Xrotation
		JOINT lknee
		{
			OFFSET 0.043451 -0.386469 0.008037
			CHANNELS 3 Zrotation Yrotation Xrotation
			JOINT lankle
			{
				OFFSET -0.014790 -0.426874 -0.037428
				CHANNELS 3 Zrotation Yrotation Xrotation
				JOINT ltoe
				{
					OFFSET 0.041054 -0.060286 0.122042
					CHANNELS 3 Zrotation Yrotation Xrotation
					End Site
					{
						OFFSET 0.000000 0.000000 0.000000
					}
				}
			}
		}
	}
	JOINT rhip
	{
		OFFSET -0.060310 -0.090513 -0.013543
		CHANNELS 3 Zrotation Yrotation Xrotation
		JOINT rknee
		{
			OFFSET -0.043257 -0.383688 -0.004843
			CHANNELS 3 Zrotation Yrotation Xrotation
			JOINT rankle
			{
				OFFSET 0.019056 -0.420046 -0.034562
				CHANNELS 3 Zrotation Yrotation Xrotation
				JOINT rtoe
				{
					OFFSET -0.034840 -0.062106 0.130323
					CHANNELS 3 Zrotation Yrotation Xrotation
					End Site
					{
						OFFSET 0.000000 0.000000 0.000000
					}
				}
			}
		}
	}
	JOINT lowerback
	{
		OFFSET 0.004439 0.124404 -0.038385
		CHANNELS 3 Zrotation Yrotation Xrotation
		JOINT upperback
		{
			OFFSET 0.004488 0.137956 0.026820
			CHANNELS 3 Zrotation Yrotation Xrotation
			JOINT chest
			{
				OFFSET -0.002265 0.056032 0.002855
				CHANNELS 3 Zrotation Yrotation Xrotation
				JOINT lowerneck
				{
					OFFSET -0.013390 0.211636 -0.033468
					CHANNELS 3 Zrotation Yrotation Xrotation
					JOINT upperneck
					{
						OFFSET 0.010113 0.088937 0.050410
						CHANNELS 3 Zrotation Yrotation Xrotation
						End Site
						{
							OFFSET 0.000000 0.000000 0.000000
						}
					}
				}
				JOINT lclavicle
				{
					OFFSET 0.071702 0.114000 -0.018898
					CHANNELS 3 Zrotation Yrotation Xrotation
					JOINT lshoulder
					{
						OFFSET 0.122921 0.045205 -0.019046
						CHANNELS 3 Zrotation Yrotation Xrotation
						JOINT lelbow
						{
							OFFSET 0.255332 -0.015649 -0.022946
							CHANNELS 3 Zrotation Yrotation Xrotation
							JOINT lwrist
							{
								OFFSET 0.265709 0.012698 -0.007375
								CHANNELS 3 Zrotation Yrotation Xrotation
								End Site
								{
									OFFSET 0.000000 0.000000 0.000000
								}
							}
						}
					}
				}
				JOINT rclavicle
				{
					OFFSET -0.082954 0.112472 -0.023707
					CHANNELS 3 Zrotation Yrotation Xrotation
					JOINT rshoulder
					{
						OFFSET -0.113228 0.046853 -0.008472
						CHANNELS 3 Zrotation Yrotation Xrotation
						JOINT relbow
						{
							OFFSET -0.260127 -0.014369 -0.031269
							CHANNELS 3 Zrotation Yrotation Xrotation
							JOINT rwrist
							{
								OFFSET -0.269108 0.006794 -0.006027
								CHANNELS 3 Zrotation Yrotation Xrotation
								End Site
								{
									OFFSET 0.000000 0.000000 0.000000
								}
							}
						}
					}
				}
			}
		}
	}
}
MOTION
Frames: 11
Frame Time: 0.033333
-0.391456 -1.682004 0.903546 3.231994 -0.025720 91.305782 9.308012 0.551932 -40.067635 -4.178751 11.257999 61.176975 5.586053 13.737322 -34.158139 0.000000 -0.000000 0.000000 -2.300022 -0.349955 -41.853349 -4.279760 -11.568214 69.147154 -0.021506 -12.794372 -37.634143 0.000000 -0.000000 0.000000 -0.159233 -0.152109 41.704541 1.878887 -1.322953 -4.018336 2.184965 -1.461646 2.502684 0.064270 4.376373 -14.541470 3.052457 -0.507103 -7.932184 -27.421257 -11.804028 4.332171 -48.259630 -8.903102 7.247233 13.646709 -45.074196 -4.674919 6.830104 -5.402487 -14.907135 24.497269 14.911647 3.727469 47.200727 8.831594 10.224532 -18.197873 42.676993 -9.639596 4.124371 6.624816 -11.598258 
-0.390412 -1.676558 0.894303 3.009865 0.082629 92.103953 9.510128 0.628115 -42.410396 -3.578240 11.650290 63.113274 5.804951 13.927910 -34.544882 0.000000 -0.000000 0.000000 -2.459845 0.016412 -44.252608 -4.836518 -11.693789 71.103751 0.112903 -12.826205 -38.014645 0.000000 -0.000000 0.000000 -0.112282 -0.268988 43.245284 1.731353 -1.090819 -4.751941 2.083201 -1.396204 2.455509 -0.075325 4.442051 -15.184277 3.023843 -0.483021 -8.333583 -27.564078 -12.149294 4.081875 -47.664039 -9.352159 7.237806 14.369268 -45.646797 -5.641714 7.140668 -5.379801 -15.126046 24.478670 15.517314 3.586563 46.768636 9.199094 10.276615 -18.597370 42.615107 -10.156210 3.907179 6.619598 -11.788927 
-0.389300 -1.672020 0.887006 2.964361 0.101145 92.737377 9.418255 0.719719 -44.200481 -3.067921 11.747063 64.452093 5.906291 14.034078 -34.755546 0.000000 -0.000000 0.000000 -2.731109 0.151743 -46.077842 -5.317738 -11.808280 72.584670 0.438208 -12.576243 -38.404473 0.000000 -0.000000 0.000000 -0.101603 -0.480087 44.866818 1.588781 -1.036007 -5.534893 2.131400 -1.389134 2.395015 -0.318456 4.442788 -15.705448 3.089365 -0.333717 -8.948065 -27.625568 -12.590541 3.918849 -47.322646 -9.643025 7.080102 15.010541 -45.993308 -6.576807 7.419428 -5.368109 -15.303612 24.327706 16.076602 3.394195 46.422438 9.556848 10.200123 -18.821937 42.701110 -10.565543 3.720645 6.593821 -11.678168 
-0.388202 -1.667418 0.880583 3.207946 -0.086535 93.560920 9.420251 0.519207 -46.131729 -2.759715 12.185882 65.458270 5.956684 13.948838 -34.623713 0.000000 -0.000000 0.000000 -3.231859 -0.083200 -48.026415 -5.585029 -11.907157 73.781287 0.552094 -12.477515 -38.397692 0.000000 -0.000000 0.000000 -0.050225 -0.613101 46.527145 1.565688 -1.241932 -6.375759 2.221641 -1.510811 2.188103 -0.654068 4.412099 -16.204545 3.353074 -0.130438 -9.719139 -27.513606 -13.257432 3.915348 -47.187319 -9.975897 6.968230 15.415723 -46.004809 -7.285867 7.815546 -5.380074 -15.421654 24.055349 16.542093 3.235604 46.226956 9.781618 10.097583 -19.416485 43.118670 -11.283746 3.502515 6.562857 -11.644431 
-0.387869 -1.665369 0.877905 3.263964 -0.174573 93.997466 9.532604 0.601581 -47.036181 -2.709720 12.545963 65.885768 5.966051 13.766992 -34.525141 0.000000 -0.000000 0.000000 -3.424321 -0.215824 -48.962282 -5.686055 -11.937225 74.258879 0.524781 -12.446455 -38.279370 0.000000 -0.000000 0.000000 -0.075901 -0.582713 47.164524 1.586129 -1.301515 -6.653574 2.288206 -1.530375 2.102501 -0.761419 4.360535 -16.371112 3.556387 -0.093714 -10.096663 -27.469924 -13.678005 3.919947 -47.087582 -10.241924 6.958698 15.351135 -45.832457 -7.403850 7.926965 -5.363007 -15.430538 23.939567 16.768663 3.232572 46.093281 9.821377 10.012271 -19.816792 43.404113 -11.758367 3.406235 6.578147 -11.757175 
-0.387829 -1.663331 0.875136 3.284150 -0.055478 94.529501 9.822417 0.946930 -48.037582 -2.716347 12.869206 66.379578 5.988574 13.535021 -34.503689 0.000000 -0.000000 0.000000 -3.551025 -0.220249 -49.917715 -5.744689 -12.221545 74.702673 0.604895 -12.269027 -38.297233 0.000000 -0.000000 0.000000 -0.056669 -0.634730 47.643928 1.617142 -1.218762 -6.961357 2.353324 -1.496509 2.089867 -0.742490 4.354578 -16.456620 3.737366 -0.146043 -10.287306 -27.399754 -14.031750 3.860503 -47.029312 -10.618828 6.999092 14.995889 -45.540079 -7.252294 7.895597 -5.399418 -15.321442 23.764134 16.914722 3.205265 45.985560 9.880371 9.939354 -20.032039 43.673131 -11.983898 3.365716 6.602307 -11.909704 
-0.387698 -1.662093 0.872984 3.343962 0.137646 94.945651 10.072532 1.258399 -48.812830 -2.721044 13.039321 66.831327 6.108627 13.406252 -34.533116 0.000000 -0.000000 0.000000 -3.609820 -0.373082 -50.682475 -5.640443 -12.554375 75.054179 0.459721 -12.267424 -38.108033 0.000000 -0.000000 0.000000 0.034866 -0.753203 47.754943 1.690338 -1.172117 -7.074987 2.377595 -1.480614 2.104548 -0.716158 4.345588 -16.418045 3.826461 -0.116078 -10.243933 -27.335770 -14.247850 3.871690 -47.028628 -10.879414 7.065278 14.649530 -45.417209 -6.974544 7.877931 -5.405785 -15.254567 23.625664 16.968796 3.209712 45.870887 9.957854 9.879715 -19.991680 43.852644 -11.896929 3.404637 6.623300 -11.954750 
-0.387418 -1.661905 0.871294 3.408891 0.251588 95.134547 10.174077 1.361335 -49.238268 -2.695133 13.090946 67.219393 6.080827 13.397268 -34.623475 0.000000 -0.000000 0.000000 -3.656792 -0.602564 -51.010279 -5.620858 -12.757483 75.391087 0.580554 -11.972795 -38.320065 0.000000 -0.000000 0.000000 0.141381 -0.838895 47.902925 1.736362 -1.195193 -7.221832 2.385854 -1.516012 2.114946 -0.713978 4.446414 -16.362625 3.831485 -0.115004 -10.091327 -27.235027 -14.340017 3.825458 -47.089210 -10.934884 7.200711 14.296613 -45.536886 -6.597740 7.957554 -5.469091 -15.224915 23.535762 16.917136 3.155369 45.843510 9.955686 9.840323 -19.884067 44.055817 -11.692314 3.429003 6.631770 -11.897044 
-0.387257 -1.662244 0.870122 3.344386 0.281996 95.186704 10.262830 1.329306 -49.405287 -2.615618 13.206185 67.574264 6.057200 13.483880 -34.767019 0.000000 -0.000000 0.000000 -3.667852 -0.643380 -51.184286 -5.595188 -12.782767 75.672755 0.634697 -11.914451 -38.426638 0.000000 -0.000000 0.000000 0.137995 -0.795938 47.947479 1.756790 -1.206258 -7.239375 2.387257 -1.533223 2.119617 -0.712288 4.475384 -16.287309 3.864627 -0.123501 -10.018965 -27.196161 -14.407309 3.811362 -47.081307 -10.920642 7.343295 14.149635 -45.795731 -6.392301 8.079027 -5.548197 -15.212214 23.555614 16.892543 3.152185 45.859432 9.899796 9.821314 -20.002551 44.195326 -11.721831 3.523834 6.654949 -11.826103 
-0.387017 -1.663262 0.869183 3.161902 0.250280 95.157539 10.269396 1.232678 -49.368151 -2.458384 13.288279 67.826341 6.093501 13.657670 -34.906161 0.000000 -0.000000 0.000000 -3.694313 -0.521367 -51.244537 -5.634695 -12.720269 75.930033 0.640609 -11.972910 -38.487555 0.000000 -0.000000 0.000000 0.036846 -0.722768 47.975913 1.741499 -1.179615 -7.262371 2.377678 -1.515999 2.175115 -0.728969 4.495501 -16.244034 3.813226 -0.095120 -10.016136 -27.240227 -14.338440 3.770802 -47.064367 -10.922977 7.412119 14.248378 -46.191218 -6.432898 8.055892 -5.580770 -15.277881 23.607275 16.884501 3.116715 45.958206 9.867664 9.888915 -20.221462 44.201608 -11.932493 3.587069 6.605379 -11.864561 
-0.386739 -1.664377 0.868746 3.084720 0.215467 95.086449 10.213230 1.071082 -49.269860 -2.326102 13.261519 67.962700 6.105024 13.816656 -34.993132 0.000000 -0.000000 0.000000 -3.718952 -0.515617 -51.169623 -5.635896 -12.672579 76.071704 0.639546 -12.017505 -38.553191 0.000000 -0.000000 0.000000 0.010371 -0.710742 47.950205 1.742680 -1.189755 -7.251918 2.349241 -1.520795 2.212219 -0.734191 4.512447 -16.226169 3.715768 -0.083168 -9.897440 -27.313698 -14.204939 3.745343 -47.073654 -10.941291 7.405461 14.463567 -46.461244 -6.654017 8.023517 -5.585417 -15.374373 23.706020 16.858019 3.076456 45.995752 9.874317 9.962401 -20.328114 44.133309 -12.149419 3.532607 6.606140 -11.931770 
